# xmcd CD database file
#
# Track frame offsets:
#	150
#	14869
#	28023
#	40293
#	51798
#	66372
#	80446
#	94590
#	107077
#	121162
#	134349
#	148121
#	168005
#	183124
#	198036
#	209751
#	223442
#	235053
#
# Disc length: 3390 seconds
#
# Revision: 0
# Processed by: cddbd v1.5.1PL0 Copyright (c) Steve Scherf et al.
# Submitted via: CDex 1.51
#
DISCID=070d3c12
DTITLE=Various Artist - New Orleans Jazz Classics CD2
DYEAR=1997
DGENRE=Jazz
TTITLE0=Wild Man Blues - Louis Armstrong and his Hot Seven
TTITLE1=Cannon Ball Blues - Jelly-Roll Morton's Red Hot Peppers
TTITLE2=Ballin' The Jack - The Chicago Footwarmers
TTITLE3=Muskrat Ramble - Louis Armstrong and his Hot Five
TTITLE4=As You Like It - Celestin's Original Tuxedo Jazz Orchestra
TTITLE5=1919 Rag - Kid Ory and Creole Jazz Band
TTITLE6=Willie The Weeper - Louis Armstrong and his Hot Seven
TTITLE7=Oriental Man - The Chicago Footwarmers
TTITLE8=My Daddy Rocks Me - Jimmy Noone's Apex Club Orchestra
TTITLE9=Maple Leaf Rag - The New Orleans Feetwarmers
TTITLE10=Struttin' With Some Barbecue - Louis Armstrong and his Hot Five
TTITLE11=Climax Rag - George Lewis and His New Orleans Stompers
TTITLE12=St James Infarmary - Louis Armstrong and his Savoy Ballroom Five
TTITLE13=African Jungle - Jungle Town Stompers
TTITLE14=Clarinet Wobble - Johnny Dodd's Trio
TTITLE15=Weary Blues - Tommy Ladnier and his Orchestra
TTITLE16=Stomp Time Blues - Jasper Taylor and his State Street Boys
TTITLE17=Just A Closer Walk With Thee - George Lewis and his New Orleans Stompers
EXTD=YEAR: 1997
EXTT0=
EXTT1=
EXTT2=
EXTT3=
EXTT4=
EXTT5=
EXTT6=
EXTT7=
EXTT8=
EXTT9=
EXTT10=
EXTT11=
EXTT12=
EXTT13=
EXTT14=
EXTT15=
EXTT16=
EXTT17=
PLAYORDER=
